<?xml version="1.0" encoding="UTF-8" standalone="no"?>
<!-- Created with Inkscape (http://www.inkscape.org/) -->

<svg
   width="400"
   height="400"
   viewBox="0 0 105.83333 105.83333"
   version="1.1"
   id="svg5"
   inkscape:version="1.2.2 (b0a8486541, 2022-12-01)"
   sodipodi:docname="E.svg"
   inkscape:export-filename="Ether.png"
   inkscape:export-xdpi="96"
   inkscape:export-ydpi="96"
   xmlns:inkscape="http://www.inkscape.org/namespaces/inkscape"
   xmlns:sodipodi="http://sodipodi.sourceforge.net/DTD/sodipodi-0.dtd"
   xmlns="http://www.w3.org/2000/svg"
   xmlns:svg="http://www.w3.org/2000/svg">
  <sodipodi:namedview
     id="namedview7"
     pagecolor="#ffffff"
     bordercolor="#000000"
     borderopacity="0.25"
     inkscape:showpageshadow="2"
     inkscape:pageopacity="0.0"
     inkscape:pagecheckerboard="0"
     inkscape:deskcolor="#d1d1d1"
     inkscape:document-units="mm"
     showgrid="false"
     inkscape:zoom="1"
     inkscape:cx="220.99999"
     inkscape:cy="274.99999"
     inkscape:window-width="1662"
     inkscape:window-height="846"
     inkscape:window-x="210"
     inkscape:window-y="110"
     inkscape:window-maximized="0"
     inkscape:current-layer="layer1" />
  <defs
     id="defs2" />
  <g
     inkscape:label="Layer 1"
     inkscape:groupmode="layer"
     id="layer1">
    <path
       style="fill:#eab832;fill-opacity:1;stroke-width:0.67412"
       d="M 46.37298,53.491857 C 43.757003,47.525061 37.163251,37.592298 32.919666,30.454145 29.554922,24.794303 27.258574,21.717541 30.219218,16.437203 33.943049,11.116849 40.452331,12.12882 43.776105,12.12882 c 4.344958,0 25.099703,-0.0027 25.099703,-0.0027 l -0.07116,5.27264 -27.429325,0.335831 c 0,0 -2.936069,-0.197669 -4.683703,2.162437 -1.320897,1.783799 -0.146257,4.898478 0.751225,6.22794 4.880824,7.230039 14.29336,22.998343 14.29336,22.998343 z"
       id="path1969"
       sodipodi:nodetypes="cscscccsscc" />
    <path
       id="path6885"
       style="opacity:1;fill:#eab832;fill-opacity:1;stroke-width:0.359969"
       d="m 70.911416,9.5702614 a 5.0517957,5.0517957 0 0 0 -5.051525,5.0522306 5.0517957,5.0517957 0 0 0 5.051525,5.051529 5.0517957,5.0517957 0 0 0 5.052234,-5.051529 5.0517957,5.0517957 0 0 0 -5.052234,-5.0522306 z m 0,3.1307516 a 1.9211221,1.9211221 0 0 1 1.92148,1.921479 1.9211221,1.9211221 0 0 1 -1.92148,1.920777 1.9211221,1.9211221 0 0 1 -1.920771,-1.920777 1.9211221,1.9211221 0 0 1 1.920771,-1.921479 z" />
    <path
       id="path6885-3"
       style="fill:#eab832;fill-opacity:1;stroke-width:0.359969"
       d="m 70.81808,86.875328 a 5.0517957,5.0517957 0 0 0 -5.051525,5.052231 5.0517957,5.0517957 0 0 0 5.051525,5.051525 5.0517957,5.0517957 0 0 0 5.052235,-5.051525 5.0517957,5.0517957 0 0 0 -5.052235,-5.052231 z m 0,3.130753 a 1.9211221,1.9211221 0 0 1 1.92148,1.921478 1.9211221,1.9211221 0 0 1 -1.92148,1.920775 1.9211221,1.9211221 0 0 1 -1.920771,-1.920775 1.9211221,1.9211221 0 0 1 1.920771,-1.921478 z" />
    <path
       id="path6885-3-6"
       style="opacity:1;fill:#eab832;fill-opacity:1;stroke-width:0.359969"
       d="m 51.539875,48.330096 a 5.0517957,5.0517957 0 0 0 -5.051525,5.052231 5.0517957,5.0517957 0 0 0 5.051525,5.051529 5.0517957,5.0517957 0 0 0 5.052235,-5.051529 5.0517957,5.0517957 0 0 0 -5.052235,-5.052231 z m 0,3.130752 a 1.9211221,1.9211221 0 0 1 1.92148,1.921479 1.9211221,1.9211221 0 0 1 -1.92148,1.920776 1.9211221,1.9211221 0 0 1 -1.920771,-1.920776 1.9211221,1.9211221 0 0 1 1.920771,-1.921479 z" />
    <path
       style="fill:#eab832;fill-opacity:1;stroke-width:0.67412"
       d="m 46.377484,53.342335 c -2.615978,5.966796 -9.20973,15.899559 -13.453314,23.037713 -3.364745,5.659841 -5.661104,8.736604 -2.70046,14.016941 3.723843,5.320355 10.233113,4.308385 13.556898,4.308385 4.344959,0 25.099692,0.003 25.099692,0.003 L 68.80914,89.435731 41.379826,89.0999 c 0,0 -2.936068,0.197669 -4.683714,-2.162437 -1.320885,-1.783799 -0.146245,-4.898477 0.751237,-6.22794 C 42.328172,73.479484 51.740697,57.71118 51.740697,57.71118 Z"
       id="path1969-6"
       sodipodi:nodetypes="cscscccsscc" />
  </g>
</svg>
