<?xml version="1.0" encoding="UTF-8" standalone="no"?>
<!-- Created with Inkscape (http://www.inkscape.org/) -->

<svg
   width="1000"
   height="400"
   viewBox="0 0 264.58333 105.83333"
   version="1.1"
   id="svg5"
   inkscape:version="1.2.2 (b0a8486541, 2022-12-01)"
   sodipodi:docname="Ether.svg"
   xmlns:inkscape="http://www.inkscape.org/namespaces/inkscape"
   xmlns:sodipodi="http://sodipodi.sourceforge.net/DTD/sodipodi-0.dtd"
   xmlns="http://www.w3.org/2000/svg"
   xmlns:svg="http://www.w3.org/2000/svg">
  <sodipodi:namedview
     id="namedview7"
     pagecolor="#ffffff"
     bordercolor="#000000"
     borderopacity="0.25"
     inkscape:showpageshadow="2"
     inkscape:pageopacity="0.0"
     inkscape:pagecheckerboard="0"
     inkscape:deskcolor="#d1d1d1"
     inkscape:document-units="mm"
     showgrid="false"
     inkscape:zoom="1.4142136"
     inkscape:cx="547.30065"
     inkscape:cy="167.23075"
     inkscape:window-width="1854"
     inkscape:window-height="1011"
     inkscape:window-x="66"
     inkscape:window-y="32"
     inkscape:window-maximized="1"
     inkscape:current-layer="layer1" />
  <defs
     id="defs2" />
  <g
     inkscape:label="Layer 1"
     inkscape:groupmode="layer"
     id="layer1">
    <path
       style="fill:#eab832;fill-opacity:1;stroke-width:0.570291"
       d="m 88.838338,52.963228 c -2.21306,-5.047779 -7.79123,-13.450679 -11.381211,-19.489401 -2.846496,-4.788102 -4.789162,-7.390976 -2.284522,-11.858026 3.150284,-4.500903 8.656989,-3.644798 11.468832,-3.644798 3.675743,0 21.233803,-0.0023 21.233803,-0.0023 l -0.0602,4.460538 -23.204613,0.284106 c 0,0 -2.483847,-0.167224 -3.962314,1.829374 -1.117445,1.509055 -0.123723,4.144005 0.635526,5.268701 4.129071,6.116455 12.091866,19.456096 12.091866,19.456096 z"
       id="path1969"
       sodipodi:nodetypes="cscscccsscc" />
    <text
       xml:space="preserve"
       style="font-size:45.6234px;fill:#eab832;fill-opacity:1;stroke-width:0.570291"
       x="113.05808"
       y="69.934196"
       id="text2216"><tspan
         id="tspan2214"
         style="font-style:normal;font-variant:normal;font-weight:normal;font-stretch:normal;font-size:45.6234px;font-family:'DejaVu Math TeX Gyre';-inkscape-font-specification:'DejaVu Math TeX Gyre';fill:#6c6783;fill-opacity:1;stroke-width:0.570291"
         x="113.05808"
         y="69.934196"
         sodipodi:role="line">ther</tspan></text>
    <path
       id="path6885-5-9-1-7-9-0"
       style="fill:#6c6783;fill-opacity:1;stroke-width:0.175648"
       d="m 130.73892,45.022979 a 2.421973,2.5088881 0 0 0 -2.42185,2.509104 2.421973,2.5088881 0 0 0 2.42185,2.508756 2.421973,2.5088881 0 0 0 2.42217,-2.508756 2.421973,2.5088881 0 0 0 -2.42217,-2.509104 z m 0,1.554834 a 0.92103998,0.95409249 0 0 1 0.9212,0.95427 0.92103998,0.95409249 0 0 1 -0.9212,0.953922 0.92103998,0.95409249 0 0 1 -0.92088,-0.953922 0.92103998,0.95409249 0 0 1 0.92088,-0.95427 z" />
    <path
       id="path6885-5-9-1-7-9-0-6"
       style="fill:#6c6783;fill-opacity:1;stroke-width:0.175648"
       d="m 132.07256,33.988889 a 2.421973,2.5088881 0 0 0 -2.42185,2.509104 2.421973,2.5088881 0 0 0 2.42185,2.508756 2.421973,2.5088881 0 0 0 2.42217,-2.508756 2.421973,2.5088881 0 0 0 -2.42217,-2.509104 z m 0,1.554834 a 0.92103998,0.95409249 0 0 1 0.9212,0.95427 0.92103998,0.95409249 0 0 1 -0.9212,0.953922 0.92103998,0.95409249 0 0 1 -0.92088,-0.953922 0.92103998,0.95409249 0 0 1 0.92088,-0.95427 z" />
    <path
       id="path6885-5-9-1-7-9-0-6-2"
       style="fill:#6c6783;fill-opacity:1;stroke-width:0.175648"
       d="m 160.40024,66.272259 a 2.421973,2.5088881 0 0 0 -2.42185,2.509104 2.421973,2.5088881 0 0 0 2.42185,2.508756 2.421973,2.5088881 0 0 0 2.42217,-2.508756 2.421973,2.5088881 0 0 0 -2.42217,-2.509104 z m 0,1.554834 a 0.92103998,0.95409249 0 0 1 0.9212,0.95427 0.92103998,0.95409249 0 0 1 -0.9212,0.953922 0.92103998,0.95409249 0 0 1 -0.92088,-0.953922 0.92103998,0.95409249 0 0 1 0.92088,-0.95427 z" />
    <path
       id="path6885"
       style="opacity:1;fill:#eab832;fill-opacity:1;stroke-width:0.264583"
       d="m 109.57544,16.466484 a 3.7131486,3.7131486 0 0 0 -3.71295,3.713469 3.7131486,3.7131486 0 0 0 3.71295,3.712952 3.7131486,3.7131486 0 0 0 3.71347,-3.712952 3.7131486,3.7131486 0 0 0 -3.71347,-3.713469 z m 0,2.301152 a 1.4120547,1.4120547 0 0 1 1.41232,1.412317 1.4120547,1.4120547 0 0 1 -1.41232,1.4118 1.4120547,1.4120547 0 0 1 -1.4118,-1.4118 1.4120547,1.4120547 0 0 1 1.4118,-1.412317 z" />
    <path
       style="fill:#eab832;fill-opacity:1;stroke-width:0.570291"
       d="m 88.842143,52.836736 c -2.21306,5.047779 -7.79123,13.450679 -11.381211,19.489401 -2.846496,4.788102 -4.789162,7.390976 -2.284522,11.858026 3.150284,4.500903 8.656989,3.644798 11.468832,3.644798 3.675746,0 21.233798,0.0023 21.233798,0.0023 l -0.0602,-4.460538 -23.204608,-0.284106 c 0,0 -2.483847,0.167224 -3.962314,-1.829374 -1.117445,-1.509055 -0.123723,-4.144005 0.635526,-5.268701 4.129071,-6.116455 12.091864,-19.456096 12.091864,-19.456096 z"
       id="path1969-6"
       sodipodi:nodetypes="cscscccsscc" />
    <path
       id="path6885-2"
       style="fill:#eab832;fill-opacity:1;stroke-width:0.264583"
       d="m 109.57924,89.33348 a 3.7131486,3.7131486 0 0 1 -3.71295,-3.713469 3.7131486,3.7131486 0 0 1 3.71295,-3.712952 3.7131486,3.7131486 0 0 1 3.71347,3.712952 3.7131486,3.7131486 0 0 1 -3.71347,3.713469 z m 0,-2.301152 a 1.4120547,1.4120547 0 0 0 1.41232,-1.412317 1.4120547,1.4120547 0 0 0 -1.41232,-1.4118 1.4120547,1.4120547 0 0 0 -1.4118,1.4118 1.4120547,1.4120547 0 0 0 1.4118,1.412317 z" />
    <path
       id="path6885-5"
       style="opacity:1;fill:#eab832;fill-opacity:1;stroke-width:0.264583"
       d="m 92.578442,49.18847 a 3.7131486,3.7131486 0 0 0 -3.71295,3.713469 3.7131486,3.7131486 0 0 0 3.71295,3.712952 3.7131486,3.7131486 0 0 0 3.71347,-3.712952 3.7131486,3.7131486 0 0 0 -3.71347,-3.713469 z m 0,2.301152 a 1.4120547,1.4120547 0 0 1 1.41232,1.412317 1.4120547,1.4120547 0 0 1 -1.41232,1.4118 1.4120547,1.4120547 0 0 1 -1.4118,-1.4118 1.4120547,1.4120547 0 0 1 1.4118,-1.412317 z" />
    <path
       id="path6885-5-9-1-7-9"
       style="fill:#6c6783;fill-opacity:1;stroke-width:0.175648"
       d="m 183.33887,59.277228 a 2.421973,2.5088881 0 0 0 -2.42185,2.509104 2.421973,2.5088881 0 0 0 2.42185,2.508756 2.421973,2.5088881 0 0 0 2.42217,-2.508756 2.421973,2.5088881 0 0 0 -2.42217,-2.509104 z m 0,1.554834 a 0.92103998,0.95409249 0 0 1 0.9212,0.95427 0.92103998,0.95409249 0 0 1 -0.9212,0.953922 0.92103998,0.95409249 0 0 1 -0.92088,-0.953922 0.92103998,0.95409249 0 0 1 0.92088,-0.95427 z" />
    <path
       id="path6885-5-9-1-7-9-3"
       style="fill:#6c6783;fill-opacity:1;stroke-width:0.175648"
       d="m 208.30463,50.619627 a 2.421973,2.5088881 0 0 0 -2.42185,2.509104 2.421973,2.5088881 0 0 0 2.42185,2.508756 2.421973,2.5088881 0 0 0 2.42217,-2.508756 2.421973,2.5088881 0 0 0 -2.42217,-2.509104 z m 0,1.554834 a 0.92103998,0.95409249 0 0 1 0.9212,0.95427 0.92103998,0.95409249 0 0 1 -0.9212,0.953922 0.92103998,0.95409249 0 0 1 -0.92088,-0.953922 0.92103998,0.95409249 0 0 1 0.92088,-0.95427 z" />
    <path
       id="path6885-5-9-1-7-9-6"
       style="fill:#6c6783;fill-opacity:1;stroke-width:0.175648"
       d="m 129.4433,60.883067 a 2.421973,2.5088881 0 0 0 -2.42185,2.509104 2.421973,2.5088881 0 0 0 2.42185,2.508756 2.421973,2.5088881 0 0 0 2.42217,-2.508756 2.421973,2.5088881 0 0 0 -2.42217,-2.509104 z m 0,1.554834 a 0.92103998,0.95409249 0 0 1 0.9212,0.95427 0.92103998,0.95409249 0 0 1 -0.9212,0.953922 0.92103998,0.95409249 0 0 1 -0.92088,-0.953922 0.92103998,0.95409249 0 0 1 0.92088,-0.95427 z" />
  </g>
</svg>
