<?xml version="1.0" encoding="UTF-8" standalone="no"?>
<!-- Created with Inkscape (http://www.inkscape.org/) -->

<svg
   width="16"
   height="16"
   viewBox="0 0 16 16"
   version="1.1"
   id="svg5"
   inkscape:version="1.2.2 (b0a8486541, 2022-12-01)"
   sodipodi:docname="file.svg"
   xmlns:inkscape="http://www.inkscape.org/namespaces/inkscape"
   xmlns:sodipodi="http://sodipodi.sourceforge.net/DTD/sodipodi-0.dtd"
   xmlns="http://www.w3.org/2000/svg"
   xmlns:svg="http://www.w3.org/2000/svg">
  <sodipodi:namedview
     id="namedview7"
     pagecolor="#ffffff"
     bordercolor="#000000"
     borderopacity="0.25"
     inkscape:showpageshadow="2"
     inkscape:pageopacity="0.0"
     inkscape:pagecheckerboard="0"
     inkscape:deskcolor="#d1d1d1"
     inkscape:document-units="mm"
     showgrid="false"
     inkscape:zoom="8.4863924"
     inkscape:cx="28.280568"
     inkscape:cy="35.6453"
     inkscape:window-width="1452"
     inkscape:window-height="749"
     inkscape:window-x="400"
     inkscape:window-y="120"
     inkscape:window-maximized="0"
     inkscape:current-layer="layer1" />
  <defs
     id="defs2" />
  <g
     inkscape:label="Layer 1"
     inkscape:groupmode="layer"
     id="layer1"
     transform="translate(-15.846061,-52.645365)">
    <path
       id="path281"
       style="fill:#eab832;fill-opacity:1;stroke-width:0.0203804"
       d="m 21.00981,56.85392 a 3.7914493,3.7914493 0 0 0 -3.791466,3.791466 3.7914493,3.7914493 0 0 0 3.791466,3.791424 3.7914493,3.7914493 0 0 0 3.791466,-3.791424 3.7914493,3.7914493 0 0 0 -3.791466,-3.791466 z m 0,1.343896 a 2.4475774,2.4475774 0 0 1 2.44757,2.44757 2.4475774,2.4475774 0 0 1 -2.44757,2.44757 2.4475774,2.4475774 0 0 1 -2.44757,-2.44757 2.4475774,2.4475774 0 0 1 2.44757,-2.44757 z" />
    <rect
       style="fill:#eab832;fill-opacity:1;stroke-width:0.0194267"
       id="rect2690"
       width="6.2109823"
       height="1.2723053"
       x="24.354391"
       y="60.009212" />
  </g>
</svg>
